<?xml version="1.0" encoding="UTF-8"?>
<svg xmlns="http://www.w3.org/2000/svg" xmlns:xlink="http://www.w3.org/1999/xlink" width="59px" height="50px"
     viewBox="0 0 59 50" version="1.1">
    <!-- Generator: Sketch 52.6 (67491) - http://www.bohemiancoding.com/sketch -->
    <title>039 - Sales Tag</title>
    <desc>Created with Sketch.</desc>
    <g id="Page-1" stroke="none" stroke-width="1" fill="none" fill-rule="evenodd">
        <g id="039---Sales-Tag">
            <path d="M48,0 L29.99,0 C29.4621969,0.00130466268 28.9559545,0.209546182 28.58,0.58 L14.02,14.771 L0.58,28.4 C0.205741205,28.7791011 -0.00244596426,29.291442 0.00130547033,29.8241457 C0.00505690491,30.3568494 0.220439137,30.8662075 0.6,31.24 L9.77,40.23 L18.76,49.4 C19.1337925,49.7795609 19.6431506,49.9949431 20.1758543,49.9986945 C20.708558,50.002446 21.2208989,49.7942588 21.6,49.42 L35.23,35.98 L49.42,21.42 C49.7904538,21.0440455 49.9986953,20.5378031 50,20.01 L50,2 C49.9967052,0.896798134 49.1032019,0.00329480111 48,0 Z M43,10 C41.3431458,10 40,8.65685425 40,7 C40,5.34314575 41.3431458,4 43,4 C44.6568542,4 46,5.34314575 46,7 C46,7.79564947 45.6839295,8.55871121 45.1213203,9.12132034 C44.5587112,9.68392948 43.7956495,10 43,10 Z"
                  id="Shape" fill="#3E95E7" fill-rule="nonzero"/>
        </g>
    </g>
</svg>
